# xmcd
#
# Track frame offsets:
# 150
# 16835
# 38878
# 51992
# 80486
# 97901
# 115054
# 139881
# 154904
# 178573
#
# Disc length: 2716 seconds
#
# Revision: 0
# Processed by: cddbd v1.4PL0 Copyright (c) Steve Scherf et al.
# Submitted via: Audion 3.0.2 (http://www.panic.com/audion/)
#
DISCID=790a9a0a
DTITLE=John Brown - Here Lies John Brown
DYEAR=1900
DGENRE=
TTITLE0=Out All Night
TTITLE1=Send Him To Me
TTITLE2=Going Nowhere
TTITLE3=Mrs. Loneliness
TTITLE4=The Phone Call
TTITLE5=Cowboys
TTITLE6=Fallen Angel
TTITLE7=Measured Memories
TTITLE8=Never As Easy
TTITLE9=Chemical Reaction
EXTD=
EXTT0=
EXTT1=
EXTT2=
EXTT3=
EXTT4=
EXTT5=
EXTT6=
EXTT7=
EXTT8=
EXTT9=
PLAYORDER=
